<svg width="110" height="140" viewBox="0 0 110 140" fill="none" xmlns="http://www.w3.org/2000/svg">
<path fill-rule="evenodd" clip-rule="evenodd" d="M54.215 68.305L54.2751 67.9241L54 68L54.2913 67.8217L54.3614 67.378L0 14.4348V8C0 3.58172 3.58172 0 8 0H18.8897L54.432 66.9305L54.5 66.5L54.6491 67.3391L54.75 67.5292L54.8748 67.2941L42.9433 0H67.539L55.266 66.5576L90.6103 0H102C106.418 0 110 3.58172 110 8V13.9478L55.3458 67.1763L110 33.7241V52.5517L55.0536 67.7094L55.0081 67.9558L110 63.1739V77.6522L55.097 68.1038L55.2498 68.2673L110 87.787V106.609L55.9287 68.9939L110 126.86V132C110 136.418 106.418 140 102 140H90.3032L55.2588 68.5279L54.804 68.2115L67.5559 140H42.8947L54.1454 68.7457L54.1287 68.7573L19.1968 140H8C3.58172 140 0 136.418 0 132V126.325L53.1744 69.4186L0 106.268V87.6228L53.8049 68.7439L53.9466 68.5922L0 77.5833V63.2412L54.0714 68.4586L54.1323 68.3935L0 52.7237V34.0789L54.2062 68.3144L54.215 68.305ZM54.7793 67.785L54.7306 67.7984L54.7624 67.9772L54.959 67.9601L54.7793 67.785ZM55.0466 68.0951L54.7749 68.0478L54.7845 68.1014L55.1059 68.216L55.0466 68.0951ZM54.9534 67.737L54.8722 67.7594L54.9779 67.9584L54.9924 67.9572L54.9534 67.737Z" fill="url(#paint0_radial_2053_22435)"/>
<defs>
<radialGradient id="paint0_radial_2053_22435" cx="0" cy="0" r="1" gradientUnits="userSpaceOnUse" gradientTransform="translate(55 70) rotate(90) scale(70 66.4422)">
<stop stop-color="#FFF356"/>
<stop offset="1" stop-color="#D5A30E" stop-opacity="0"/>
</radialGradient>
</defs>
</svg>
