<svg width="808" height="266" viewBox="0 0 808 266" fill="none" xmlns="http://www.w3.org/2000/svg">
<path fill-rule="evenodd" clip-rule="evenodd" d="M433.11 772.01C431.43 797.81 410.8 818.44 385 820.11C410.83 821.79 431.48 842.45 433.12 868.29C434.77 842.42 455.44 821.74 481.3 820.1C455.46 818.46 434.79 797.83 433.11 772V772.01ZM433.12 675.29C434.77 649.42 455.44 628.74 481.3 627.1C455.46 625.46 434.79 604.83 433.11 579C431.43 604.8 410.8 625.43 385 627.1C410.83 628.78 431.48 649.44 433.12 675.28V675.29ZM433.11 386.01C431.43 411.81 410.8 432.44 385 434.11C410.83 435.79 431.48 456.45 433.12 482.29C434.77 456.42 455.44 435.74 481.3 434.1C455.46 432.46 434.79 411.83 433.11 386V386.01ZM433.11 193.01C431.43 218.81 410.8 239.44 385 241.11C410.83 242.79 431.48 263.45 433.12 289.29C434.77 263.42 455.44 242.74 481.3 241.1C455.46 239.46 434.79 218.83 433.11 193V193.01ZM433.12 96.29C434.77 70.42 455.44 49.74 481.3 48.1C455.46 46.46 434.79 25.83 433.11 0C431.43 25.8 410.8 46.43 385 48.1C410.83 49.78 431.48 70.44 433.12 96.28V96.29ZM529.11 676.01C527.43 701.81 506.8 722.44 481 724.11C506.83 725.79 527.48 746.45 529.12 772.29C530.77 746.42 551.44 725.74 577.3 724.1C551.46 722.46 530.79 701.83 529.11 676V676.01ZM529.11 482.01C527.43 507.81 506.8 528.44 481 530.11C506.83 531.79 527.48 552.45 529.12 578.29C530.77 552.42 551.44 531.74 577.3 530.1C551.46 528.46 530.79 507.83 529.11 482V482.01ZM529.11 290.01C527.43 315.81 506.8 336.44 481 338.11C506.83 339.79 527.48 360.45 529.12 386.29C530.77 360.42 551.44 339.74 577.3 338.1C551.46 336.46 530.79 315.83 529.11 290V290.01ZM529.11 96.01C527.43 121.81 506.8 142.44 481 144.11C506.83 145.79 527.48 166.45 529.12 192.29C530.77 166.42 551.44 145.74 577.3 144.1C551.46 142.46 530.79 121.83 529.11 96V96.01ZM626.11 772.01C624.43 797.81 603.8 818.44 578 820.11C603.83 821.79 624.48 842.45 626.12 868.29C627.77 842.42 648.44 821.74 674.3 820.1C648.46 818.46 627.79 797.83 626.11 772V772.01ZM626.12 675.29C627.77 649.42 648.44 628.74 674.3 627.1C648.46 625.46 627.79 604.83 626.11 579C624.43 604.8 603.8 625.43 578 627.1C603.83 628.78 624.48 649.44 626.12 675.28V675.29ZM626.12 482.29C627.77 456.42 648.44 435.74 674.3 434.1C648.46 432.46 627.79 411.83 626.11 386C624.43 411.8 603.8 432.43 578 434.1C603.83 435.78 624.48 456.44 626.12 482.28V482.29ZM626.12 289.29C627.77 263.42 648.44 242.74 674.3 241.1C648.46 239.46 627.79 218.83 626.11 193C624.43 218.8 603.8 239.43 578 241.1C603.83 242.78 624.48 263.44 626.12 289.28V289.29ZM626.12 96.29C627.77 70.42 648.44 49.74 674.3 48.1C648.46 46.46 627.79 25.83 626.11 0C624.43 25.8 603.8 46.43 578 48.1C603.83 49.78 624.48 70.44 626.12 96.28V96.29ZM722.11 676.01C720.43 701.81 699.8 722.44 674 724.11C699.83 725.79 720.48 746.45 722.12 772.29C723.77 746.42 744.44 725.74 770.3 724.1C744.46 722.46 723.79 701.83 722.11 676V676.01ZM674 530.11C699.83 531.79 720.48 552.45 722.12 578.29C723.77 552.42 744.44 531.74 770.3 530.1C744.46 528.46 723.79 507.83 722.11 482C720.43 507.8 699.8 528.43 674 530.1V530.11ZM722.11 290.01C720.43 315.81 699.8 336.44 674 338.11C699.83 339.79 720.48 360.45 722.12 386.29C723.77 360.42 744.44 339.74 770.3 338.1C744.46 336.46 723.79 315.83 722.11 290V290.01ZM722.12 192.29C723.77 166.42 744.44 145.74 770.3 144.1C744.46 142.46 723.79 121.83 722.11 96C720.43 121.8 699.8 142.43 674 144.1C699.83 145.78 720.48 166.44 722.12 192.28V192.29ZM818.11 772.01C816.43 797.81 795.8 818.44 770 820.11C795.83 821.79 816.48 842.45 818.12 868.29C819.77 842.42 840.44 821.74 866.3 820.1C840.46 818.46 819.79 797.83 818.11 772V772.01ZM818.11 579.01C816.43 604.81 795.8 625.44 770 627.11C795.83 628.79 816.48 649.45 818.12 675.29C819.77 649.42 840.44 628.74 866.3 627.1C840.46 625.46 819.79 604.83 818.11 579V579.01ZM818.11 386.01C816.43 411.81 795.8 432.44 770 434.11C795.83 435.79 816.48 456.45 818.12 482.29C819.77 456.42 840.44 435.74 866.3 434.1C840.46 432.46 819.79 411.83 818.11 386V386.01ZM818.11 193.01C816.43 218.81 795.8 239.44 770 241.11C795.83 242.79 816.48 263.45 818.12 289.29C819.77 263.42 840.44 242.74 866.3 241.1C840.46 239.46 819.79 218.83 818.11 193V193.01ZM818.12 96.29C819.77 70.42 840.44 49.74 866.3 48.1C840.46 46.46 819.79 25.83 818.11 0C816.43 25.8 795.8 46.43 770 48.1C795.83 49.78 816.48 70.44 818.12 96.28V96.29ZM48.11 772.01C46.43 797.81 25.8 818.44 0 820.11C25.83 821.79 46.48 842.45 48.12 868.29C49.77 842.42 70.44 821.74 96.3 820.1C70.46 818.46 49.79 797.83 48.11 772V772.01ZM48.11 579.01C46.43 604.81 25.8 625.44 0 627.11C25.83 628.79 46.48 649.45 48.12 675.29C49.77 649.42 70.44 628.74 96.3 627.1C70.46 625.46 49.79 604.83 48.11 579V579.01ZM48.11 386.01C46.43 411.81 25.8 432.44 0 434.11C25.83 435.79 46.48 456.45 48.12 482.29C49.77 456.42 70.44 435.74 96.3 434.1C70.46 432.46 49.79 411.83 48.11 386V386.01ZM48.11 193.01C46.43 218.81 25.8 239.44 0 241.11C25.83 242.79 46.48 263.45 48.12 289.29C49.77 263.42 70.44 242.74 96.3 241.1C70.46 239.46 49.79 218.83 48.11 193V193.01ZM48.11 0.01C46.43 25.81 25.8 46.44 0 48.11C25.83 49.79 46.48 70.45 48.12 96.29C49.77 70.42 70.44 49.74 96.3 48.1C70.46 46.46 49.79 25.83 48.11 0V0.01ZM145.11 676.01C143.43 701.81 122.8 722.44 97 724.11C122.83 725.79 143.48 746.45 145.12 772.29C146.76 746.42 167.44 725.74 193.3 724.1C167.46 722.46 146.79 701.83 145.11 676V676.01ZM145.12 578.29C146.76 552.42 167.44 531.74 193.3 530.1C167.46 528.46 146.79 507.83 145.11 482C143.43 507.8 122.8 528.43 97 530.1C122.83 531.78 143.48 552.44 145.12 578.28V578.29ZM145.12 386.29C146.76 360.42 167.44 339.74 193.3 338.1C167.46 336.46 146.79 315.83 145.11 290C143.43 315.8 122.8 336.43 97 338.1C122.83 339.78 143.48 360.44 145.12 386.28V386.29ZM145.12 192.29C146.76 166.42 167.44 145.74 193.3 144.1C167.46 142.46 146.79 121.83 145.11 96C143.43 121.8 122.8 142.43 97 144.1C122.83 145.78 143.48 166.44 145.12 192.28V192.29ZM241.11 772.01C239.43 797.81 218.8 818.44 193 820.11C218.83 821.79 239.48 842.45 241.12 868.29C242.77 842.42 263.44 821.74 289.3 820.1C263.46 818.46 242.79 797.83 241.11 772V772.01ZM241.12 675.29C242.77 649.42 263.44 628.74 289.3 627.1C263.46 625.46 242.79 604.83 241.11 579C239.43 604.8 218.8 625.43 193 627.1C218.83 628.78 239.48 649.44 241.12 675.28V675.29ZM241.12 482.29C242.77 456.42 263.44 435.74 289.3 434.1C263.46 432.46 242.79 411.83 241.11 386C239.43 411.8 218.8 432.43 193 434.1C218.83 435.78 239.48 456.44 241.12 482.28V482.29ZM241.11 193.01C239.43 218.81 218.8 239.44 193 241.11C218.83 242.79 239.48 263.45 241.12 289.29C242.77 263.42 263.44 242.74 289.3 241.1C263.46 239.46 242.79 218.83 241.11 193V193.01ZM241.12 96.29C242.77 70.42 263.44 49.74 289.3 48.1C263.46 46.46 242.79 25.83 241.11 0C239.43 25.8 218.8 46.43 193 48.1C218.83 49.78 239.48 70.44 241.12 96.28V96.29ZM337.11 676.01C335.43 701.81 314.8 722.44 289 724.11C314.83 725.79 335.48 746.45 337.12 772.29C338.77 746.42 359.44 725.74 385.3 724.1C359.46 722.46 338.79 701.83 337.11 676V676.01ZM337.12 578.29C338.77 552.42 359.44 531.74 385.3 530.1C359.46 528.46 338.79 507.83 337.11 482C335.43 507.8 314.8 528.43 289 530.1C314.83 531.78 335.48 552.44 337.12 578.28V578.29ZM337.12 386.29C338.77 360.42 359.44 339.74 385.3 338.1C359.46 336.46 338.79 315.83 337.11 290C335.43 315.8 314.8 336.43 289 338.1C314.83 339.78 335.48 360.44 337.12 386.28V386.29ZM337.12 192.29C338.77 166.42 359.44 145.74 385.3 144.1C359.46 142.46 338.79 121.83 337.11 96C335.43 121.8 314.8 142.43 289 144.1C314.83 145.78 335.48 166.44 337.12 192.28V192.29Z" fill="#00073A" fill-opacity="0.1"/>
</svg>
