<svg width="675" height="362" viewBox="0 0 675 362" fill="none" xmlns="http://www.w3.org/2000/svg">
<g filter="url(#filter0_ii_416_6452)">
<path fill-rule="evenodd" clip-rule="evenodd" d="M604.511 104.925C646.306 125.853 675 169.076 675 219V361.5H0V219C0 169.076 28.6932 125.854 70.4879 104.925C92.1304 43.7918 150.451 0 219 0H455.999C524.548 0 582.868 43.7915 604.511 104.925Z" fill="#E8A37D"/>
</g>
<mask id="path-2-outside-1_416_6452" maskUnits="userSpaceOnUse" x="8" y="8.44019" width="659" height="346" fill="black">
<rect fill="white" x="8" y="8.44019" width="659" height="346"/>
<path fill-rule="evenodd" clip-rule="evenodd" d="M591.535 114.718C633.373 131.116 663 171.848 663 219.5V349.5H12V219.5C12 171.847 41.6285 131.113 83.4688 114.717C100.829 55.6023 155.481 12.4402 220.213 12.4402H454.79C519.523 12.4402 574.175 55.603 591.535 114.718Z"/>
</mask>
<g filter="url(#filter1_ii_416_6452)">
<path fill-rule="evenodd" clip-rule="evenodd" d="M591.535 114.718C633.373 131.116 663 171.848 663 219.5V349.5H12V219.5C12 171.847 41.6285 131.113 83.4688 114.717C100.829 55.6023 155.481 12.4402 220.213 12.4402H454.79C519.523 12.4402 574.175 55.603 591.535 114.718Z" fill="url(#paint0_linear_416_6452)"/>
</g>
<path d="M591.535 114.718L587.697 115.845L588.249 117.727L590.075 118.443L591.535 114.718ZM663 349.5V353.5H667V349.5H663ZM12 349.5H8V353.5H12V349.5ZM83.4688 114.717L84.9283 118.441L86.7542 117.726L87.3068 115.844L83.4688 114.717ZM590.075 118.443C630.433 134.26 659 173.549 659 219.5H667C667 170.147 636.313 127.972 592.994 110.994L590.075 118.443ZM659 219.5V349.5H667V219.5H659ZM663 345.5H12V353.5H663V345.5ZM16 349.5V219.5H8V349.5H16ZM16 219.5C16 173.547 44.5687 134.257 84.9283 118.441L82.0094 110.993C38.6883 127.969 8 170.146 8 219.5H16ZM87.3068 115.844C104.181 58.3861 157.304 16.4402 220.213 16.4402V8.44019C153.658 8.44019 97.478 52.8185 79.6309 113.59L87.3068 115.844ZM220.213 16.4402H454.79V8.44019H220.213V16.4402ZM454.79 16.4402C517.7 16.4402 570.823 58.3868 587.697 115.845L595.373 113.591C577.526 52.8192 521.346 8.44019 454.79 8.44019V16.4402Z" fill="#9F472B" fill-opacity="0.87" mask="url(#path-2-outside-1_416_6452)"/>
<defs>
<filter id="filter0_ii_416_6452" x="-9" y="-9" width="693" height="379.5" filterUnits="userSpaceOnUse" color-interpolation-filters="sRGB">
<feFlood flood-opacity="0" result="BackgroundImageFix"/>
<feBlend mode="normal" in="SourceGraphic" in2="BackgroundImageFix" result="shape"/>
<feColorMatrix in="SourceAlpha" type="matrix" values="0 0 0 0 0 0 0 0 0 0 0 0 0 0 0 0 0 0 127 0" result="hardAlpha"/>
<feOffset dx="-9" dy="-9"/>
<feGaussianBlur stdDeviation="6"/>
<feComposite in2="hardAlpha" operator="arithmetic" k2="-1" k3="1"/>
<feColorMatrix type="matrix" values="0 0 0 0 0.501961 0 0 0 0 0.137255 0 0 0 0 0.0235294 0 0 0 0.8 0"/>
<feBlend mode="normal" in2="shape" result="effect1_innerShadow_416_6452"/>
<feColorMatrix in="SourceAlpha" type="matrix" values="0 0 0 0 0 0 0 0 0 0 0 0 0 0 0 0 0 0 127 0" result="hardAlpha"/>
<feOffset dx="9" dy="9"/>
<feGaussianBlur stdDeviation="6"/>
<feComposite in2="hardAlpha" operator="arithmetic" k2="-1" k3="1"/>
<feColorMatrix type="matrix" values="0 0 0 0 0.501961 0 0 0 0 0.138353 0 0 0 0 0.0235294 0 0 0 0.8 0"/>
<feBlend mode="normal" in2="effect1_innerShadow_416_6452" result="effect2_innerShadow_416_6452"/>
</filter>
<filter id="filter1_ii_416_6452" x="-4" y="-3.55981" width="686" height="372.06" filterUnits="userSpaceOnUse" color-interpolation-filters="sRGB">
<feFlood flood-opacity="0" result="BackgroundImageFix"/>
<feBlend mode="normal" in="SourceGraphic" in2="BackgroundImageFix" result="shape"/>
<feColorMatrix in="SourceAlpha" type="matrix" values="0 0 0 0 0 0 0 0 0 0 0 0 0 0 0 0 0 0 127 0" result="hardAlpha"/>
<feOffset dx="-12" dy="-12"/>
<feGaussianBlur stdDeviation="7.5"/>
<feComposite in2="hardAlpha" operator="arithmetic" k2="-1" k3="1"/>
<feColorMatrix type="matrix" values="0 0 0 0 0.694118 0 0 0 0 0.576471 0 0 0 0 0.47451 0 0 0 0.9 0"/>
<feBlend mode="normal" in2="shape" result="effect1_innerShadow_416_6452"/>
<feColorMatrix in="SourceAlpha" type="matrix" values="0 0 0 0 0 0 0 0 0 0 0 0 0 0 0 0 0 0 127 0" result="hardAlpha"/>
<feOffset dx="15" dy="15"/>
<feGaussianBlur stdDeviation="7.5"/>
<feComposite in2="hardAlpha" operator="arithmetic" k2="-1" k3="1"/>
<feColorMatrix type="matrix" values="0 0 0 0 1 0 0 0 0 0.983343 0 0 0 0 0.916719 0 0 0 0.8 0"/>
<feBlend mode="normal" in2="effect1_innerShadow_416_6452" result="effect2_innerShadow_416_6452"/>
</filter>
<linearGradient id="paint0_linear_416_6452" x1="337.5" y1="17.0157" x2="337.5" y2="349.5" gradientUnits="userSpaceOnUse">
<stop stop-color="#F4D8BF"/>
<stop offset="0.971" stop-color="#FDF3DF"/>
</linearGradient>
</defs>
</svg>
